<svg version="1.2" xmlns="http://www.w3.org/2000/svg" viewBox="0 0 1200 540" width="1200" height="540">
	<title>&lt;Path&gt;</title>
	<style>
		.s0 { fill: #ffffff } 
		.s1 { fill: #635eb0 } 
	</style>
	<g id="&lt;Group&gt; copy 5">
		<path id="&lt;Path&gt;" class="s0" d="m511.5 131.4c0-48.5 39.4-87.9 88-87.9 41.3 0 75.9 28.4 85.4 66.8 1.7 6.8 2.5 13.9 2.5 21.1q0 4.9-0.5 9.6c-4.7 44.1-42.1 78.4-87.4 78.4-48.6 0-88-39.4-88-88z"/>
		<g id="&lt;Group&gt;" style="opacity: .3">
			<path id="&lt;Path&gt;" class="s1" d="m538.7 165.7c3.9-0.1 7.5 2.8 10.7 5.1 2.6 1.8 5.4 4.6 6.6 7.4 0.4 0.9 0.5 1.6 0.8 2.4 0.1 0.2 1.1 2.7 1.1 2.8-0.1 1.5-1.3 3.3-2.4 4.4-3.2 3.3-8 0.9-11.2-1.1-3-1.8-5.9-3.9-8.5-6.4-1.2-1.1-2.9-2.2-3.8-3.7-1.1-1.9-0.8-4.3-0.7-6.6 0-3.7-4.7-7.8 1-8.6 2.2-0.3 9.1 1.6 9.6 4.3z"/>
			<path id="&lt;Path&gt;" class="s1" d="m609 51.7c1-1.1 2.2-0.4 3.3 0 1 0.3 1.9 0.5 3.1 0.5 2.4 0 4.5 0 6.7 0.5 2.1 0.6 4.1 0.9 6.1 1.4 0.8 0.2 1.6 0.6 2.4 0.8 0.5 0.1 1.1-0.1 1.6 0 0.2 0.1 0.2 0.3 0.4 0.4 0.4 0.1 0.8 0 1.2 0.1 2 0.3 3.9 0.9 5.7 1.5 0.9 0.2 1.7 0.3 2.4 0.8 0.9 0.5 2 1 2.7 1.6 2.9 2.1 6 3.9 8.7 6.5 2.4 2.5 5 4.7 7.6 7.1 0.6 0.5 1.1 1.2 1.7 1.7 0.7 0.5 1.3 0.8 2 1.4 1.3 1.4 2.4 2.9 3.5 4.5 2.1 3 4.8 5.5 6.4 8.8 0.8 1.6 1.5 3.2 2.5 4.7 0.6 1 1.2 2.2 1.6 3.2 0.3 0.8 1 1.8 1.2 2.5 0.3 1.2 0.3 2.3 0.6 3.4 0.2 0.5 0.5 0.8 0.6 1.3 0.1 0.6-0.2 1.3 0 1.9 0.1 0.5 0.4 0.8 0.5 1.3 0.2 0.6-0.1 1.3 0 1.9 0.1 0.5 0.4 0.8 0.6 1.3 0.1 0.7-0.3 1.5-0.1 2.2 0.1 0.5 0.5 0.7 0.6 1.3 0.1 0.5 0 1.3 0 1.8 0 1.4 0.4 2.5 0.5 3.8 0.1 1.2 0.3 2.8 0 4-0.1 0.5-0.4 0.8-0.6 1.3-0.1 0.7 0.2 1.4 0 2.1-1.5 0.4-1-2.7-1-3.4 0-1.4-0.6-2.2-0.5-3.5 0-1.6-0.7-1.9-1.7-3.1-0.4-0.5-1.3-1.5-1.6-2.2-0.1-0.5-0.1-1.2-0.2-1.6-0.1-0.6-0.3-1-0.3-1.6 0.1-1.3 0.1-2-0.9-2.8-0.7-0.6-1.9-1.3-2.8-1.5-1.2-0.3-2.2-0.3-3.5-0.5-0.5-0.1-0.7-0.5-1.3-0.6-0.6-0.1-1.3 0.3-2-0.1-0.6-0.3-1.4-1.5-1.6-2.1-0.3-1.1-0.1-2.1 0.4-3.1 0.2-0.3 0.3-0.7 0.6-1 0.2-0.4 0.7-0.8 0.9-1.2 1-1.9-0.4-4.9-0.8-6.4-0.2-0.6-1.1-2.5-0.6-3 0.5-0.6 3.5-0.1 4.1 0.2 0.3-0.6-0.3-1.9-0.5-2.6-0.2-0.9-0.6-2.1-1.1-2.9-1-1.6-2.7-3.1-4.4-3.9-1.1-0.6-1.7-0.9-1.9 0.6-0.1 0.6 0.1 1-0.3 1.6-0.2 0.4-0.6 0.5-0.8 1-0.2 0.6 0.2 1.3 0 1.9-0.1 0.5-0.4 0.7-0.5 1.1-0.3 1.3 0.2 2.7 0 4-0.4 2.5-2.3 3.7-4.5 4.2-2.3 0.6-4.5 1.2-6.7 2.2-2.4 1-5 1.4-7.5 0.6-2-0.6-3.6-1.8-5.5-2.8-0.8-0.5-1.6-0.7-2.5-1-0.9-0.4-1.9-0.8-2.9-1.1-1.8-0.5-3.8-0.7-5.4-1.7-1.6-0.9-3.6-2.1-4.7-3.6-1-1.4-2-4.3-1.3-6.1 0.6-1.4 2.6-2.5 3.6-3.7 1.6-1.9 1.2-3.2 0-5.1-0.5-0.8-1.2-1.7-1.5-2.5-0.2-1-0.1-2.6 0-3.7 0.1-1 0.4-1.7 0.9-2.5 0.5-0.8 1.8-1.3 2.2-2.1 0.4-0.7 0-1.1-0.3-1.6-0.1-0.2-0.3-0.3-0.4-0.4-0.2-0.4-0.1-0.7-0.3-1.1-0.5-1.2-1.5-1-2.6-1.3-1.2-0.3-2.2-0.2-3.2 0.2-0.7 0.3-0.9 0.5-1.6 0.6-0.8 0.1-1.2-0.3-1.7-0.4-1.4-0.3-2.1 0.6-3.4 0.7-1 0-1.7-0.5-2.5-1.3-0.7-0.6-1.6-1.8-1.5-2.8 0.1-1 1.4-1.7 2.1-2.6z"/>
			<path id="&lt;Path&gt;" class="s1" d="m619.2 91.6c-0.4 0.2-0.6 0.4-1 0.5-0.8-1-1.7-1.9-2.8-2.6-1.5-1-2.3-0.4-2.6 1.3-0.2 0.9 0.2 1.4 0.4 2 0.2 0.7 0 1.5 0.8 1.9 1 0.6 4 0.3 3.6-1.5z"/>
			<path id="&lt;Path&gt;" class="s1" d="m670.3 160.4q0.4-0.6 1-0.5c0.2 0.9 0.2 2.4 0 3.3-0.1 0.5-0.4 0.8-0.5 1.4 0 0.5 0 1-0.1 1.5-0.1 0.7-0.7 1.7-0.8 2.4-0.2 1-0.3 1.6-0.7 2.5-0.3 0.9-0.6 2-0.9 3-0.4 0.9-0.8 1.5-1.3 2.3-1 1.6-1.8 3.2-2.8 4.8-1.8 2.9-3.8 5.8-6.4 8-1 0.8-2 1.4-2.9 2-0.4 0.3-0.6 0.6-1 0.8-0.3 0.2-0.8 0.3-1 0.5-0.9 0.7-3.3 3.1-4.4 2.5 0.8-2 2.1-4 3-5.9 1.1-2.2 3.2-2.1 4.8-3.7 2.6-2.5-1.7-3.6-3.2-4.5-1.4-1-1.4-2.4-1.4-3.9 0-1.5-0.1-2.7-0.6-4-0.1-0.6-0.4-1.3-0.5-1.9q0-0.5 0-1.1 0-0.4-0.4-0.6c-0.3-1.5 0.3-2.4 0.8-3.7 0.5-1.3 0.8-2.5 1.9-3.5 1-1 2.2-0.7 3.6-0.7 0.9 0 1.3 0.2 2.1 0.4 0.5 0.2 1.3 0.5 1.7 0.6 0.7 0.1 1.3 0.1 1.9 0.2 0.7 0.1 0.7 0.5 1.6 0.3 0.9-0.2 1.8-1.3 2.8-1.5 1.3-0.3 2.8 0.3 4.2-0.1 0-0.1 0-0.3-0.5-0.9z"/>
			<path id="&lt;Path&gt;" class="s1" d="m570.7 92.3c1.5 0.1 3.5-1.7 4.4-3 1.3-1.9-1-3.7-2.4-4.6-0.4-0.4-0.9-0.7-1.5-0.9-0.3-0.2-1-0.7-1.3-0.7-1 0-1.3 2.3-1.7 3-1.1 2.4 0.7 4.1 2.5 5.4z"/>
			<path id="&lt;Path&gt;" class="s1" d="m563.1 88.8q0.2-0.2 0.3-0.3c0.5 1.1-0.3 2.3-0.4 3.4-0.7 0-2.3-1.4-2.3-2.2 0-1.3 1.9-1.3 2.8-1.3z"/>
			<path id="&lt;Path&gt;" class="s1" d="m549.2 140.5c0.4 1.9 3.1-0.3 3.8-0.9 0.5-0.5 1.1-0.9 1.4-1.5 0.3-0.8 0.3-1.7 0.3-2.6 0.1-1 0.4-1.8 0.4-2.8 0-1-0.1-2-0.3-3-0.6-1.7-1.8-3-3.2-4-0.8-0.4-1.6-0.8-2.4-1.2-1.1-0.6-1.1-0.9-2.2-0.3-1.2 0.6-2.5 1.2-3.5 2.2-1.1 1.2-2.3 2.3-3.1 3.7-1 1.8 0.1 3.2 1 4.8 1.1 1.9 2.8 3.4 4.3 5.1 0.4 0.4 1 1.3 1.6 1.6 1 0.5 2.1-0.4 1.9-1.1z"/>
			<path id="&lt;Path&gt;" class="s1" d="m549.6 147.6q0.1 0.1 0.3 0.1c0 0.5 1.1 2.2 0.4 2.7-0.5 0.3-1.4-0.8-1.7-1.2-0.6-0.6-1-1.8-0.3-2.5 0.6-0.7 1.9-0.1 1.7 0.9z"/>
			<path id="&lt;Path&gt;" class="s1" d="m567.1 60.5c0.5 0.7 2.2 1 3 0.8 1-0.3 1.8-0.6 2.7-0.8 2-0.3 4.5-1.3 6.2-2.4 2.5-1.5 6.9-5.8 2.6-8-1.7-0.9-3.8-0.7-5.8-0.7-1 0-1.5 0.4-2.6 0.4-1.1-0.1-2 0.3-2.9 0.6-1.8 0.4-3.5 0.9-5.2 1.6-1.5 0.7-2.7 1.8-3.9 2.9-1.5 1.5-1.7 3.4-0.2 4.9 0.9 0.9 1.7 0.7 2.9 0.7 1.2 0 2.4 0 3.2 0z"/>
			<path id="&lt;Path&gt;" class="s1" d="m556.3 61.3q0.3-0.5 0.8-0.4c0.4 0.9-1.8 2.4-2.5 2.7-1 0.5-3.1 1.7-3.5-0.1-0.2-1.1 1-2.6 2-3.2 1.1-0.6 3.3 0 3.6 1.4z"/>
			<path id="&lt;Path&gt;" class="s1" d="m523.3 136.5q0.2 0 0.3-0.1c0.5-1.6-0.2-3.2-0.3-4.7-0.1-1.6 0-3.2 0-4.8q0-2.3 0-4.7c0-0.7 0.1-1.3-0.1-1.9 0-0.3-0.2-0.5-0.3-0.9-0.1-0.5 0-1.1 0-1.6 0-0.8 0.1-1.6-0.1-2.3 0-0.1-0.2-0.8-0.3-0.9-0.1-0.4 0-0.5-0.3-0.9-0.7-1.1-2.1-1.8-3.3-1.2-1 0.5-1.7 1.3-2.7 1.7-1.5 0.6-2.1 1.4-2.8 2.8-0.6 1.1-0.8 2.4-1.2 3.6-0.1 0.3-0.4 0.4-0.4 0.8-0.1 0.3 0 0.7-0.1 1.1-0.1 0.2-0.3 0.5-0.3 0.9q0 0.4 0 0.8 0 0.3-0.3 0.4c-0.2 0.7-0.1 1.3-0.1 1.9-0.1 0.9-0.4 1.6-0.4 2.4 0 0.9-0.4 1.5-0.4 2.4q0 1.2 0 2.4c0 1.6 0 3.2 0 4.8 0 0.8 0.2 1.2 0.4 2 0.1 0.7 0.2 1.6 0.4 2.4 0.1 0.5 0.6 1.1 0.7 1.6 0.2 0.8 0.3 1.2 0.8 1.9 0.8 1.3 1.3 1.9 2.8 2.5 1.3 0.6 3.1 0.4 4.4-0.6 0.4-0.3 1.1-1 1.2-1.4 0.1-0.4 0-0.8 0.1-1.2 0.1-0.4 0.3-0.7 0.3-1.3 0-1.5-0.3-3.7 0-5.1 0.2-0.8 0.7-1.6 0.9-2.4 0.3-1 0.3-1.8 1.1-0.4z"/>
			<path id="&lt;Path&gt;" class="s1" d="m525.3 156.8c1 0.3 1.6-2.1 1.6-2.8 0-0.6 0.2-1.4-0.4-1.8-0.4-0.3-1.5-0.4-2-0.2-1.3 0.4-1.2 2.2-1.2 3.2 0 1.1 1 2.6 2.4 2.4z"/>
			<path id="&lt;Path&gt;" class="s1" d="m661.7 158.4q0.1 0.1 0.1 0.3c0.4 0 0.6 0.3 1 0.4 0.4 0.1 0.9 0.1 1.3 0.1 1 0 1.6 0.3 2.4 0.4 0.4 0 1 0 1.4 0 0.5-0.1 0.7-0.3 1.1-0.3 0.9-0.2 1.5-0.2 2.3-0.7 1.2-0.9 2.1-2.3 2.8-3.6 0.9-1.5 1.6-3.1 1.6-5 0-0.8 0-1.5-0.5-2.1-0.5-0.7-0.7-1.2-1-2-0.7-1.7-1.4-2.2-3.3-2.3-1.7 0-3.3 1-4.8 1.8-0.7 0.4-1.2 0.9-1.8 1.4-0.5 0.4-1.1 0.6-1.6 1.2-1 1.4-1.2 3.2-1.6 4.8-0.2 0.8-0.3 2-0.1 2.9 0 0.2 0.2 0.2 0.3 0.4 0 0.3 0 0.6 0 0.9 0.2 0.4 0.6 0.9 0.4 1.4z"/>
			<path id="&lt;Path&gt;" class="s1" d="m657.4 155.2c1 0-0.4 2.8-1.5 2.7-1-0.1-1.8-1.7-2.1-2.6-1-3.5 4.4-3.8 4.4-0.5z"/>
			<path id="&lt;Path&gt;" class="s1" d="m644.2 148.8c0.1-0.8 1-1.3 1.1-2.1 0.2-0.7-0.1-1.3-0.6-2-0.3-0.5-1-1.2-1.7-1.1-0.6 0.2-1 1.1-1.5 1.5-1.1 0.7-2.9 1.5-1.6 3.1 0.5 0.7 1.4 0.9 2.2 1 1.1 0.2 1.7-0.1 2.5-0.8z"/>
			<path id="&lt;Path&gt;" class="s1" d="m671.7 113.4c1.5-0.3 1.3 1.9 1.1 2.7-0.6 0.2-1.3 0.6-1.9 0.5-0.6 0-1.8-0.5-2.3-0.9-1.2-0.8-1.8-2.1-1.1-3.5 0.4-0.8 2.4-2.1 3.3-1.5 0.9 0.6 1.3 2.6 1.3 3.5z"/>
			<path id="&lt;Path&gt;" class="s1" d="m559.5 198.9c0.4 0.8 0.7 1.1 0 1.6-0.5 0.5-1.2 0.5-1.9 0.3-0.9-0.2-1.9-1.4-2.6-2.1-0.3-0.5-0.9-1.4-1-1.8 0-0.6 0.3-1.1 0.6-1.6 0.7-0.9 1.7-1.6 2.4-2.4 1.2-1.2 1.9-0.5 2.8 0.6 0.7 0.8 1.3 1.8 2 2.7 0.2 0.3 0.8 1.4 0.8 1.6 0.1 0.5-0.2 1.1-0.5 1.5-0.7 0.9-2 2.1-3 2.4z"/>
			<path id="&lt;Path&gt;" class="s1" d="m550 195.8q0.1-0.1 0.3-0.1c0.3-1-0.1-1.7-1.1-2-0.9-0.2-2.2 0.2-2.4 1-0.2 0.8 0.6 1.6 1.2 2.1 0.9 0.7 1.8 0.8 2-0.6z"/>
			<path id="&lt;Path&gt;" class="s1" d="m555.9 93.9c-0.1-0.4 0.4-1.5 0.5-1.9 0.2-0.5 0.5-1.3 0.7-1.9q0.4-0.9 0.6-1.9c0.2-0.8 0.5-1.4 0.6-2 0.3-1.5-1.4-2.6-2.8-2.2-1.2 0.2-2.3 1.2-3.2 1.9-0.7 0.5-0.9 0.4-1.2 1.2-0.4 0.7-0.5 1.4-0.7 2.1-0.2 0.7-0.4 1.1-0.4 1.9 0 0.8-0.1 1.7 0.1 2.4 0.9 3.8 5 1.4 5.8-1.2z"/>
			<path id="&lt;Path&gt;" class="s1" d="m544 68.1c0.4 1.4-2.3 2.4-3.2 2.4-1.1 0-1.3-0.2-1.7-1.1-0.3-0.9-0.4-1.5 0.1-2.3 0.9-1.2 3.2-1.9 4.6-1.4 1.6 0.7 0.9 2.9-0.6 3.2z"/>
			<path id="&lt;Path&gt;" class="s1" d="m561.1 96.7c0.5 0.1 1.1 0.7 1.2 1.2 0.1 0.3 0 0.7 0.1 1.1 0.1 0.3 0.3 0.5 0.3 0.9 0.1 0.4-0.1 0.8 0 1.2 0.1 0.4 0.3 0.7 0.4 1.2 0.1 0.7-0.2 1.6 0 2.4 0.1 0.7 0.8 1.5 0.3 2.3-0.4 0.6-1.3 0.5-1.9 0.5-0.7-0.1-1.3-0.4-2-0.5-0.8-0.2-1.8-0.7-2.5-1.1-1.2-0.8-2.4-1.6-2.7-3-0.3-1.3 0-3.4 0.2-4.6 0.3-1 0.8-2.4 1.8-3 1-0.6 3.4-0.3 4.4 0.2z"/>
			<path id="&lt;Path&gt;" class="s1" d="m552 97.5q0 0.1 0 0.3c0.3-2-2-1.7-2.4-0.3-0.6 1.6 2 2.1 2.4 0.4z"/>
			<path id="&lt;Path&gt;" class="s1" d="m524 109.5c-0.6 1.2-0.9 2.2-0.6 3.5 0.3 1.2 1 2.5 1.5 3.6 0.4 1 0.3 1.7 0.2 2.7-0.3 1.2-0.3 2.4-0.1 3.6 0.3 1.3 0.7 2.8 0.8 4.1 0.1 1.6 0 3.2 0 4.8 0 3.2 1.6 5.7 4.4 7.1 0.9 0.4 1.8 0.5 2.8 0.5 1 0 1.4-0.3 2.1-1.1 0.8-0.8 1.1-1.7 1.6-2.7 0.4-0.9 0.8-1.7 1.1-2.6 0.4-1.5-0.3-3.8 0.7-5.1 0.3-0.4 0.8-0.6 1.1-0.9 0.5-0.3 0.9-0.8 1.3-1.2 1-0.9 1-1.8 1.5-3 0.5-1 0.9-2 1.7-2.8 1-1.1 2.4-1.7 3.4-2.8 0.7-0.9 0.9-1.7 0.9-2.8 0-0.7 0.1-1.5-0.1-2.2-0.2-0.7-0.5-1.3-0.6-2.1 0-0.9 0.1-1.6 0.4-2.4 0.4-1.1 0.7-2.2 0.6-3.4-0.2-2.6-1.7-5-3.1-7.2-0.6-1.1-1.2-2.1-1.4-3.3-0.3-1.3 0.2-2.8 0.5-4.1 0.4-1.4 1.2-2.4 2-3.5 0.7-1.1 1.5-2.5 2.6-3.3 1.2-0.9 2.2-1.6 3.7-1.8 0.5-0.1 1-0.3 1.5-0.3 0.7 0 1.3 0.3 1.9 0.4 2.7 0.3 5-1.5 7.7-1.6 1.1 0 2.1 0.2 3 0.8 0.8 0.4 1.7 0.8 2.6 1 2.2 0.5 5-0.8 6.8 1 0.6 0.6 0.8 1.5 1.4 2.1 1.1 1.1 2.7 1.4 4.1 1.7 2.2 0.5 4.4 0.8 6.5 1.5 2.1 0.8 3.9 2.2 6 2.9 2.1 0.8 5.3 0.4 7.3-0.2 1.3-0.3 3.2-1 3.9-2.2 0.4-0.7 0.6-1.3 1.2-1.9 0.6-0.6 1.3-0.6 2.1-0.8 2.5-0.6 3.8-2.6 4.4-5 0.3-1.7 0.1-3.5 0.4-5.2 0.4-1.9 1.1-3.7 1.8-5.5 0.5-1.4 0.8-2.7 0.7-4.2 0-1.3-0.2-3.4-1.5-4.1-1-0.6-2.4-0.5-3.5-0.4-2 0.2-4 0.6-6 0-1.7-0.6-2.5-1.8-3.4-3.4-1.1-2.1-1.7-4.3-2.9-6.4-0.9-1.6-2.1-3-4-3.1-1.3 0-2.2 0.6-3 1.6-1.1 1.2-1.8 2.8-2.8 4.1-0.9 1.1-1.8 2.3-3 3.2-1.9 1.5-4.5 1.6-6.7 2.4-2.3 0.9-4.3 2.6-6.8 3.2-3.2 0.8-6.5 0.2-9.8 0.5-2 0.3-3.8 0.8-5.7 1.5-1.6 0.6-2.8 1.5-4.3 2.3-1.4 0.8-2.7 1.7-4.3 2.3-1.6 0.6-3.2 1-4.8 1.6-1.6 0.7-2.8 1.5-4.4 1.9-1.8 0.5-3.5 1.4-5 2.5-1.4 1.2-2.5 2.7-3.3 4.3-0.5 1-0.8 2.1-1.4 3.1-0.5 1-1.3 1.9-2.1 2.7-1.1 1.2-2.2 2.4-3.3 3.7-1.3 1.5-2.1 3.5-3.1 5.3-0.7 1.3-1 2.8-1.6 4.2-0.7 1.4-1.2 2.8-2 4.1-0.5 0.8-1.1 1.9-1.2 2.8 0 0.3 0.1 0.8 0.3 1.2 0.1 0.4 0.4 0.7 0.6 1.2 0.2 0.8 0 1.8 0.6 2.5 0.5 0.5 1.1 0.4 1.7 0 0.6-0.3 1.1-0.7 1.8-0.9 0.4-0.1 1.6-0.6 2.6 0z"/>
		</g>
		<g id="&lt;Group&gt;" style="opacity: .2">
			<path id="&lt;Path&gt;" class="s1" d="m592.5 60.1c0.6-0.7-1.8 1.9-1.9 2.4-0.1 0.2 0.1 0.6 0.1 0.8q0 0.8-0.2 1.5c-0.4 1.3-1.4 2.5-2.1 3.6-0.3 0.5-0.6 0.8-1 1.2-0.3 0.5-0.5 0.9-0.9 1.3-1.2 1.1-2.3 2.2-3.3 3.4-1.8 2.3-1.9 5.1-0.1 7.4 0.4 0.7 1.5 1.6 2.3 1.7 0.5 0.1 1.1 0 1.6-0.1 0.9-0.3 1.9-0.3 2.8-0.6 1.2-0.3 2-0.1 3.1 0.3 0.6 0.2 1.2 0.4 1.7 0.6 0.5 0.3 0.9 0.6 1.5 0.8 1.2 0.3 2.4 0 3.5-0.5 0.8-0.3 1.5-0.6 2.3-1 0.9-0.6 2-0.8 2.9-1.2 0.8-0.4 1.5-0.9 2.2-1.4 0.6-0.4 0.9-1 1.3-1.5 1.2-1.4 0.8-3.4 1.4-5 0.5-1.5 1.6-2.6 1.9-4.1 0.2-1.4-0.5-2.7-1.4-3.7-0.9-1.2-2.5-1.7-4-1.8-1.1 0-2.3 0.1-3.4 0.1-0.8-0.1-1.6-0.5-2.3-0.8-0.9-0.4-1.5-0.9-2.4-1.4-0.7-0.4-1.3-0.9-2-1.3-0.7-0.3-1.2-0.7-2.1-0.7-0.7-0.1-1.1 0.3-1.5 0z"/>
			<path id="&lt;Path&gt;" class="s1" d="m567.3 69c-0.3-1.2-0.6-2.3-1.9-2.5-0.7-0.1-1.7-0.1-2.4 0.1-1.1 0.2-1.9 1-2.9 1.6-1 0.6-3.1 1.2-2.9 2.7 0.1 1.4 1.6 2.1 2.6 2.8 1.1 0.8 1.7 1.9 3.3 1.7 1.5-0.2 2.6-1.4 3.3-2.7 0.5-0.8 1-1.6 1.3-2.5 0.2-0.6 0.1-2-0.7-2.1z"/>
			<path id="&lt;Path&gt;" class="s1" d="m585.9 116.9c-0.2-0.9-0.5-1.7-1.5-1.9-0.5-0.1-1.3-0.1-1.8 0-0.9 0.2-1.5 0.8-2.2 1.3-0.8 0.5-2.4 0.9-2.3 2.1 0.1 1 1.3 1.6 2 2.2 0.8 0.6 1.4 1.4 2.5 1.2 1.3-0.1 2.1-1.1 2.6-2 0.4-0.7 0.8-1.3 1-2 0.2-0.4 0.1-1.5-0.6-1.6z"/>
			<path id="&lt;Path&gt;" class="s1" d="m536.3 121.3c-0.2-0.8-0.4-1.5-1.3-1.7-0.5-0.1-1.1 0-1.6 0.1-0.8 0.1-1.3 0.6-1.9 1-0.7 0.5-2.1 0.9-2 1.9 0.1 0.9 1.1 1.4 1.7 1.9 0.8 0.5 1.2 1.2 2.2 1.1 1.1-0.2 1.8-1 2.3-1.8 0.3-0.6 0.7-1.1 0.9-1.7 0.1-0.4 0.1-1.4-0.5-1.5z"/>
			<path id="&lt;Path&gt;" class="s1" d="m518.2 116.8q-0.2-0.9-1-1.3c-0.3 0.4-0.9 0.6-1.3 1-0.8 0.7-1.6 2-1.7 3.1-0.1 0.7 0 1.6 0 2.3 0 1.1-0.2 2.1-0.3 3.1-0.1 2.1-0.2 3.9 1.6 5.2 1.2 0.9 2.4 0.9 3.5-0.1 1.2-1.2 1.6-2.6 1.9-4.1 0.1-0.8 0.1-1.6 0.3-2.4 0.1-0.7 0.2-1.3 0.4-2 0.4-1.4 0.5-3-0.4-4.3-0.8-1.2-1.5-2-3-0.5z"/>
			<path id="&lt;Path&gt;" class="s1" d="m628.8 65.4q-1.9 0.4-3.8 1c0 1.2-0.7 2.3-0.2 3.5 0.7 1.6 2.1 2.8 2.6 4.4 1 3.1-1.4 5.8-1.9 8.7-0.6 4.3 5.3 4 7.9 4.2 1.7 0.2 3.6 0.5 5.2 1.3 1.8 1 3.4 1.9 5.5 2.3 2 0.4 4.1-0.4 5.8-1.4 1.8-1.1 3.4-3.1 4.1-5.1 0.4-1.3 0.1-3-0.3-4.3-0.6-1.7-2.1-2.9-3.4-4.1-0.9-1-1.6-2.2-2.5-3.2-1.2-1.2-2.3-2.5-3.5-3.8-1.9-2-3.7-4.2-6.2-5.5-1.7-1-3.4-1.3-5.4-1.1-1.7 0.3-3.4 1-3.9 3.1z"/>
		</g>
	</g>
</svg>