<svg version="1.2" xmlns="http://www.w3.org/2000/svg" viewBox="0 0 1200 540" width="1200" height="540">
	<title>&lt;Group&gt;</title>
	<style>
		.s0 { fill: #040a2b } 
		.s1 { mix-blend-mode: soft-light;fill: #ffffff } 
		.s2 { fill: #4f8df4 } 
		.s3 { mix-blend-mode: soft-light;fill: #7f87b8 } 
		.s4 { opacity: .2;fill: #223995 } 
	</style>
	<g id="&lt;Group&gt;">
		<path id="&lt;Path&gt;" class="s0" d="m1090.3 284.9l-169.9 81.8h-6.2l-142-33h-5l-59.8-32.4-71.3 35.7-3.1 0.3-37.2 22.7-2.6-0.8-79.8-81.8-2.5 0.2-59.6-65.5h-6l-49.6 66.8-5.1 4.2-37 50.7-81.5-11.5-2.2-2.5-161.2-45.4-4.3 1.6-43.9 59.8-40.3 15.4-33.3-41.5v130.5l1226 21.3v-89.9l-105.3-63.7-5-3z"/>
		<path id="&lt;Path&gt;" class="s1" d="m513.4 277.4l5.9 7.7 25.1 54-29.8-25-8.1-3.6-1.3 3.4 3.9 11.8-6.2-11.8 8-36.3z"/>
		<path id="&lt;Compound Path&gt;" fill-rule="evenodd" class="s1" d="m421 373.4l30.9-46.4-8.6-64.8-9.3 13.4 11.3-33.8-4.8 18.3 11.4-35.2-5.3-8.4-4.2 1.5-12.3 14.3 15.3-20.2h6l58 64.6-11.7 9.1 15.6-8.5 80.1 82.2-56.7-26.6-25.4-28.5 2.6 7.9 38.1 56.1zm29.7-27.5l-2.2 0.9-5.6 4.4h3.9zm33.7 19h7.9l2.8-21.3-2.8 1.2zm-30.4-108.4l3-34.4-2.6 1.6-8.5 35.5zm-13.8 93.5l5.7-3.1 15.2-19.6-7.7 2.3z"/>
		<path id="&lt;Path&gt;" class="s1" d="m465.5 280.7l4.8 3.7 21.2 47.2-23.9-44.6z"/>
		<path id="&lt;Path&gt;" class="s1" d="m584.6 377.6l-40.2-38.5 26.8 29.9-6.7-2.4 5.5 10.4z"/>
		<path id="&lt;Compound Path&gt;" fill-rule="evenodd" class="s1" d="m707.4 301.3l-4 10.4 42.9 38.4-22.9-14.7-7-0.2 3.8 4.3-28.4 15.1 22.4 28-58.2-2.3-19.9-43.3zm13.4 37.9l6.1 8.2-6.8-7.9zm-3.4-6.7h4l-7.5-8.9-5.5-1.9zm-24.1 32l2.1-0.9-3.2-4.2-1.1 2.1zm-2.2-12.9h3l-11.4-12.8-4.8-2.8z"/>
		<path id="&lt;Path&gt;" class="s1" d="m633 337.3l19.1 42.9-45.8-2.6-10.5-17.6 16.1-9.9 12.1 23.3-7.7-25.9z"/>
		<path id="&lt;Path&gt;" class="s1" d="m767.2 333.7l83.6 54.1 11.8 0.5-90.4-54.6z"/>
		<path id="&lt;Compound Path&gt;" fill-rule="evenodd" class="s1" d="m1090.3 284.9l7.7 44.1-22.7-16.7-3.8 2.1 50.2 72.5-9.8-0.7-59.4-77.9-16.3 6.1 45.1 82.3-82.3-3.2-37.7-35.1-6.4 0.9 27 33.6-38.1-1.5-23.4-24.7zm-96.6 95.4l-9.1-21-12.3-12.4-2.8 1.9z"/>
		<path id="&lt;Path&gt;" class="s1" d="m272.1 322.3l28 27.8-18.4-22.5 4.4 0.7 36 30.1 31.5-24.6z"/>
		<path id="&lt;Path&gt;" class="s1" d="m170.8 291.9l42.2 45.4-42.2-32.9-37.8-10.5 62 69.1-40.9-2-29.1-48.7 23.5 48.5-11.4-0.4-43.5-62.6-3.9 2.6 30.3 58.9-59.5-23.5 43.9-59.8 4.3-1.6z"/>
		<path id="&lt;Path&gt;" class="s1" d="m246.2 364.6l-33.2-27.3 25.7 27z"/>
		<path id="&lt;Path&gt;" class="s1" d="m206.9 312.3l6.1 2.1 20.9 25.9z"/>
		<path id="&lt;Path&gt;" class="s2" d="m1034.2 395.1l-7.3-6.8-19.6 2.3-1.9 2.7-2.2-0.3-3.9-2.4-9.5 1.7-6.5 0.6-10.3-1.2-1.7-1.8-3.4-0.9-7.7 2.7-2.2-0.8-8.7 0.7z"/>
		<path id="&lt;Path&gt;" class="s2" d="m812.5 386.4l-7.4-3.8h-11.8l-37.5 1.9z"/>
		<path id="&lt;Path&gt;" class="s1" d="m390.6 283.1l8.3 2.7 18.1 56.7-19.3-39.9-2.2 0.3 29.3 64.8h-11.4z"/>
		<path id="&lt;Path&gt;" class="s3" d="m514.6 314.1l28.7 24.1-16.6-28.5-13.8-26.6 6.4 2-5.9-7.7-2.5 0.2-6.4 31.4 2 1.5z"/>
		<path id="&lt;Path&gt;" class="s1" d="m382.8 312.3l22.7 55-17.5-0.5-13.8-35.2-2.5-0.7 14.2 35.9-20.6-0.5-1.2-26.5z"/>
		<path id="&lt;Path&gt;" class="s1" d="m720.9 339.1l-12.3-17.4 5.4 1.8 9.4 11.9 7.2 0.4 3 0.8-30.2-24.9 4-10.4-34.2 17 9.6 20.3-12.4-18.8-8.8 4.4 33.9 50.3 13.1 0.4-16.8-20.3 20.9-11.1-18.5-21.8 19.9 21.1z"/>
		<path id="&lt;Path&gt;" class="s1" d="m663.5 335.1l-27.4 1.9 16 36.4 22.8 0.6-15-37.8 0.5 4.3 19 33.5h8.1z"/>
		<path id="&lt;Path&gt;" class="s1" d="m972.5 341.6l-0.2 5.4 12.4 12.3 9.8 22.5 10.9 0.5-16.6-43.3 19.9 43.3h9l-24-46.3 55.1 47.4h14.5l-69.6-52z"/>
		<path id="&lt;Path&gt;" class="s1" d="m952 351.5l2.9 7.8 17.8 22.1-28.1-0.6-7.3-20 6.1 20-9.9-0.3-13.1-13.8z"/>
		<path id="&lt;Path&gt;" class="s1" d="m195 363l-77.4-86.1-8.9-2.5-4.3 1.6-13.2 18 45.9 66.4 4.3 0.4-33-62.2 14.4 16.2 21.4 45.8 4.3 0.2-21.6-48.5 27.2 48.7 30.7 2-55.3-69.8 61.2 68.7z"/>
		<path id="&lt;Path&gt;" class="s1" d="m1212.9 389.1l-1223.3-22.4-2.7 107.7h1226z"/>
		<path id="&lt;Path&gt;" class="s4" d="m518 370.1l-26.5-38.5 31.4 38.6z"/>
		<path id="&lt;Path&gt;" class="s4" d="m746.3 350.1l24.7 26.3-3.8-0.1z"/>
		<path id="&lt;Path&gt;" class="s1" d="m767.2 340.8l-5.8 13.1 10 18.1-6.3-15.6 7 10.5-2.9-23.7z"/>
		<path id="&lt;Path&gt;" class="s1" d="m485.8 335.6l-8.9 18.7 8.9-4.2z"/>
		<path id="&lt;Path&gt;" class="s1" d="m226.2 324.6l22.4 29.6 49.2 8.5-46.3-9.4 46.3 6.3-3.9-8.3z"/>
		<path id="&lt;Path&gt;" class="s1" d="m1119.8 367.3h43.6l45.8 21.7-25.5-0.4-39.4-18.4-4.2-0.3 20.2 17.5-27.1-1.6z"/>
		<path id="&lt;Path&gt;" class="s1" d="m1090.3 284.9l7.7 44.1-7.7-5.7-17.8-29.8-3.6 1.7 6.4 17.1-3.8 2.1 50.2 72.5-62.9-86.5z"/>
		<path id="&lt;Path&gt;" class="s1" d="m88.3 297.9l31.1 60.3-2.3-0.1-29.9-50.4-1 1.3 23.3 46.1-15.1-6-18.7-34z"/>
		<path id="&lt;Path&gt;" class="s1" d="m73 318.7l14.7 27.8-1.7-0.6-16.1-22.9z"/>
		<path id="&lt;Path&gt;" class="s1" d="m55.3 337.8l23.9 20.6-21.5-1.1-15.2-13.7-4.2 0.7 11.1 12.2-11.1 0.1-9.5-8.5z"/>
	</g>
</svg>