<svg version="1.2" xmlns="http://www.w3.org/2000/svg" viewBox="0 0 1200 540" width="1200" height="540">
	<title>&lt;Group&gt; copy 2</title>
	<style>
		.s0 { fill: #000006 } 
		.s1 { fill: #0a1129 } 
		.s2 { opacity: .7;mix-blend-mode: multiply;fill: #0f0f59 } 
	</style>
	<g id="&lt;Group&gt; copy 2">
		<path id="&lt;Path&gt;" class="s0" d="m188.1 426.5l-6.7-36.5h2.8l5.8 36.5v-31l1.4 4.5 1.3 27.8z"/>
		<path id="&lt;Path&gt;" class="s0" d="m268.5 442.9l3.5-38.9v2l1.5 3.8z"/>
		<path id="&lt;Path&gt;" class="s0" d="m1009.8 461.1l6.2-41.1 2 4z"/>
		<path id="&lt;Path&gt;" class="s0" d="m1042 476c0-2 4-60 4-60l4 5.8-6.2 54.2 6.2-27.2-4 28.6z"/>
		<path id="&lt;Path&gt;" class="s0" d="m1152.3 470.4l-3.9-36.4 1.9 1.4 3.7 35.4v-28.1l4.3 1.4 2.8 28.7 11.7 2.5-1.5-34 1.5 5 1.2 29.3z"/>
	</g>
	<g id="&lt;Group&gt; copy 3">
		<path id="&lt;Path&gt;" class="s1" d="m369.4 378.6l-29.3-0.4-33.4-0.5-34.6-0.5-78.2-1-9.9-0.2h-0.4l-23.6-0.3c-7.8-0.8-7.8-8.1-4.9-14.5 2.5-5.4 7.1-10.2 11-9.9 7.5 0.7 11.4 8.3 12.2 10.3-0.9-2.7-5.6-16.6-2.4-18.8 1.9-1.3 4.1 1.3 6 4.6 1.1 2 2.2 4.2 2.9 5.9-2.7-7.8-7.5-27.6 9.5-33q0.9-0.3 1.7-0.5 0 0 0.1-0.1 3-0.6 5.6-0.4 0.1 0.1 0.2 0.1 0.1 0 0.1 0c14.4 1.6 19.5 23.4 21 33.5 0.5 3 0.6 5 0.6 5 0 0 1.9-18.1 7-15.5 1.7 0.9 1.7 12.4 1.6 16.2 0 0.7 0 1.2 0 1.2 0 0 0.3-4.3 2.9-3.8 2.1 0.5 1 8.5 0.6 11 0.5-2.1 2.1-8.4 5.3-14.2q0.1 0 0.1 0c3.5-6.2 8.9-11.8 16.9-10.8 13.8 1.6 9.8 19.7 7.7 26.7-0.4 1.6-0.8 2.6-0.8 2.6 0 0 6.8-3.9 8.7-2.3 2 1.5-0.2 6.3-0.2 6.3h0.1l31.6 0.2h1.5c0 0-3.1-33 5.3-35q0.2-0.1 0.5-0.2 0.3 0 0.5 0h0.2c8.9 0.6 4 22.7 3.1 26.7 0.2-0.8 0.7-2.2 1.3-3.7q0.1-0.1 0.1-0.1c1.1-2.7 2.7-5.3 4.4-4.4 1.2 0.6 1.4 3 1.1 5.8 2-5.7 6.3-12.3 15.8-13.2q2.3-0.2 5 0c19.4 1.9 21.2 20 21.3 24.5 0-2.1 0.5-6.7 4.5-6.3 5.1 0.5-0.3 9-0.3 9z"/>
		<path id="&lt;Path&gt;" class="s2" d="m202 319.4q0 0-0.1 0 0.1 0 0.1 0 0 0 0 0z"/>
		<path id="&lt;Path&gt;" class="s2" d="m183.6 376l-23.6-0.3c-7.8-0.8-7.8-8.1-4.9-14.5 4.4 11.4 28.5 14.8 28.5 14.8z"/>
		<path id="&lt;Path&gt;" class="s2" d="m273.4 375.3h0.1l-1.4 1.9-78.2-1c-1-1.8-8.6-15.7-12-28.8 1.1 2 2.2 4.2 2.9 5.9-2.7-7.8-7.5-27.6 9.5-33q0.9-0.3 1.7-0.5c-4.2 1.5-8.8 6.6-6.2 22.2 4.4 27 31.9 32.8 31.9 32.8 0 0 0.3-12.4 1.3-21.9 0.5 3 0.6 5 0.6 5 0 0 1.9-18.1 7-15.5 0 0-9.3 18.1-3.2 23.7 2.4 2.2 3.8-1.8 4.8-7.5 0 0.7 0 1.2 0 1.2 0 0 0.3-4.3 2.9-3.8 2.1 0.5 1 8.5 0.6 11 0.5-2.1 2.1-8.4 5.3-14.2-0.3 1.2-4.9 17.5 1.4 21.4 4.8 3.1 15.8 1.2 23.3-5.5-0.4 1.6-0.8 2.6-0.8 2.6 0 0 6.8-3.9 8.7-2.3 2 1.5-0.2 6.3-0.2 6.3z"/>
		<path id="&lt;Path&gt;" class="s2" d="m340.1 378.2l-33.4-0.5-1.6-2.2h1.5c0 0-3.1-33 5.3-35-4.6 1.6-5.6 25.7 0.2 29.7 1.5 1 2.8-0.3 4-2.9 0.5-1.1 1-2.5 1.4-4q0.1-0.1 0.1-0.1c1.1-2.7 2.7-5.3 4.4-4.4 1.2 0.6 1.4 3 1.1 5.8 2-5.7 6.3-12.3 15.8-13.2-18 3.8-9.7 22.7-0.8 26.1q0.9 0.4 2 0.7z"/>
	</g>
	<g id="&lt;Group&gt; copy 4">
		<path id="&lt;Path&gt;" class="s1" d="m1095.2 386l-41.5 2.2c0 0-8.2-26.4-1.5-28.1 6.2-1.6 11.3 19.6 11.9 22-0.3-1.8-1.7-13.3 1.3-14.1 2.7-0.6 3.9 12.3 4.2 16.6v0.1c0 0.8 0.1 1.3 0.1 1.3z"/>
		<path id="&lt;Path&gt;" class="s1" d="m1149.1 375.5c-1.1 4.5-2.6 7.7-2.6 7.7l-51.3 2.8c0 0-0.5-1.3-1.3-3.4-3.4-9.2-11.7-34.5-0.8-36.5 7.1-1.2 12.9 3.5 16.7 8.1 3.1 3.7 4.9 7.4 5.1 7.8-0.2-0.8-4.1-13.1 1.1-13.4 5.4-0.3 4.1 26 4.1 26 0 0 0.4-5.4 2.4-11 2.6-7.3 7.7-15 17.8-11.5 11.4 4 10.8 15.6 8.8 23.4z"/>
		<path id="&lt;Path&gt;" class="s2" d="m1069.7 386h25.5l-25.9 1.4 0.3-2.7c0 0.8 0.1 1.3 0.1 1.3z"/>
		<path id="&lt;Path&gt;" class="s2" d="m1149.1 375.5c-1.1 4.5-2.6 7.7-2.6 7.7l-51.3 2.8c0 0-0.5-1.3-1.3-3.4 12.6-0.1 22.3-10.7 15.9-28.4 3.1 3.7 4.9 7.4 5.1 7.8-0.2-0.8-4.1-13.1 1.1-13.4 5.4-0.3 4.1 26 4.1 26 0 0 0.4-5.4 2.4-11 0 7.8 1.8 16.7 10 17.7 7.2 0.9 12.8-2.3 16.6-5.8z"/>
	</g>
</svg>