<svg version="1.2" xmlns="http://www.w3.org/2000/svg" viewBox="0 0 1200 540" width="1200" height="540">
	<title>&lt;Group&gt;</title>
	<defs>
		<linearGradient id="g1" x2="1" gradientUnits="userSpaceOnUse" gradientTransform="matrix(0,-288.714,1103.438,0,698.983,474.614)">
			<stop offset="0" stop-color="#005489"/>
			<stop offset="1" stop-color="#090440"/>
		</linearGradient>
	</defs>
	<style>
		.s0 { fill: url(#g1) } 
		.s1 { mix-blend-mode: soft-light;fill: #ffffff } 
		.s2 { opacity: .5;mix-blend-mode: soft-light;fill: #ffffff } 
		.s3 { mix-blend-mode: soft-light;fill: #bdc6ff } 
	</style>
	<g id="&lt;Group&gt;">
		<path id="&lt;Path&gt;" class="s0" d="m109.5 363.1l60.4-22.2h5l171-95.4 49 39.4 4.6 1.6 61.1 41.3 4.6 1.7 19.1 9.7 30.2 7-82.3-22.7 2.6-0.3 40.6-25.3 8.8-4 43.7 32.6 2.9-0.3 7.8 10.6 11 7.2 70.7-90.7h3.4l43.8-65 4.2-2.4 27.1 35.8 2 0.5 102.4 118.7 3.5 0.6 80.4-33.2 5.6-0.4 98.5 72.4 62.7-52.7 3.7 0.2 92-68.3 63.3 33v182.1l-1103.4-0.2z"/>
		<path id="&lt;Path&gt;" class="s1" d="m671.7 185.9l31 52.7-26.1-39.2-6.9 2.1 30.4 58-19.5-32.9-16.7 23.6 3.4 34-3.4 1.4-7.7-15.4-4.1 1.9 13.4 47.1-65.6 54.4-46.2-34.5 66.6-85.8 23.1 51.5-19.7-51.5 43.8-65z"/>
		<path id="&lt;Path&gt;" class="s1" d="m763.1 325.3l-60.4-86.7 31.5 47.4-1.3 1.9 16.7 29.8z"/>
		<path id="&lt;Path&gt;" class="s1" d="m345.9 245.5l28.3 36.4-28.3-29.8-3.8 1.2 17.9 21.1-13.7-10.7-19 13.5 23.4 42.6-14.2-20.8-2.7 0.3 10.9 15.1-31.8 26.4-36.8-46.9-4 2.8 21.1 28.6-67-13z"/>
		<path id="&lt;Path&gt;" class="s1" d="m892.7 307.9l14.1 13.9-10.7-7-3.4-0.9 19 31.1-19 5.1-27.6-27.5-2.5 0.3 4.2 4.7-7.1-6.6-5 0.7 16.6 23-27.3 1.3-12.7-14.9 55.8-22.8z"/>
		<path id="&lt;Path&gt;" class="s2" d="m620.3 253.3l33.4 75.7-33.4 27.7-17.1-71.6 10.9 76.7-5.4 4.5-17.8-75.4z"/>
		<path id="&lt;Path&gt;" class="s3" d="m667.5 188.3l2.2 13.2 30.4 58-19.5-32.9-16.7 23.6-10.2-29.2 13.6 63.2-3.4 1.4-7.7-15.4-13.5-45.2z"/>
		<path id="&lt;Path&gt;" class="s2" d="m319.9 260l30.8 59.8-14.2-20.8-16.6-22.6 13.9 22.9 10.9 15.1-15.7 13-26.8-48.6 23 51.7-6.1 5.1-27.5-59.8z"/>
		<path id="&lt;Path&gt;" class="s1" d="m1015.7 359.7l38.2-32.1 53.7 56.9-50-56.7 92-68.3 23.5 15.5-5.8 18.6-23-12.9h-2.3l38.3 32.7-43.7 28.5-34-34h-3.4l48.3 59.4-38.8-42-20.5-5.5 85.6 94.7-79.5 13.5-60.1-57.8 34.6 38.9z"/>
		<path id="&lt;Path&gt;" class="s1" d="m1053.9 327.6l53.7 56.9 27.3 34.3-13.2 1.6-67.8-79.6-4.2 3 51.1 58.5-25.6 7.4-52-56.3z"/>
		<path id="&lt;Path&gt;" class="s1" d="m1149.6 259.5l23.5 15.5-3.1 9.9-23.2-19.8-1.1 1.6 22.2 24.8-0.6 2.1-35.1-21.1z"/>
		<path id="&lt;Path&gt;" class="s1" d="m1129.2 274.9l39.2 46.3-19.6 12.8-34.5-40.4h-2.8l30.6 44.7-5.5 3.6-41-42.3z"/>
	</g>
</svg>